<?xml version="1.0" encoding="UTF-8"?><svg id="b" xmlns="http://www.w3.org/2000/svg" viewBox="0 0 400 400"><g id="c"><path d="m200,0C89.54,0,0,89.54,0,200s89.54,200,200,200,200-89.54,200-200S310.46,0,200,0Zm37.15,172.21c-18.16,17.26-59.83,63.25-73.82,81.55-2.38,3.13-5.66,2.38-3.27-1.34,17.11-25.89,33.19-53.28,67.86-89.59,10.72-11.16,16.22,2.68,9.23,9.38Zm-112.66,10.27c6.1-5.06,3.27,30.36,2.68,31.4-.6,1.19-8.48-26.64-2.68-31.4Zm-1.64,90.33c-13.84-21.43-40.63-42.71-44.05-49.86-3.27-6.7-.15-9.08,2.38-9.23,2.23-.15,4.61,1.19,6.85,3.57,18.6,19.94,30.06,42.12,35.72,54.47.6,1.19-.15,2.08-.89,1.04Zm7.29-3.13c-11.91-30.51-38.4-77.54-38.25-77.54-7.14-17.11,6.85-13.54,10.57-8.78,11.01,14.44,25.15,62.8,29.47,85.87.15,1.04-1.34,1.49-1.79.45Zm8.93-10.42c-3.42-25.15-9.23-96.29-2.38-124.71,4.76-19.35,14.14-5.21,13.99,4.61-.3,26.64-7.29,97.33-9.67,120.1-.15,1.04-1.79,1.19-1.93,0Zm8.63-1.79c16.97-84.68,43.31-123.52,51.05-136.77,6.55-11.46,12.95-3.57,13.54,2.68.6,5.8-.89,11.76-3.72,16.97-29.32,54.47-49.86,94.06-57.89,119.36-1.04,2.83-3.57.74-2.98-2.23Zm85.13,21.28c-14.73-3.57-29.17-3.57-44.35-3.42-13.1.15-23.66,3.87-24.11,3.87-2.08.45-3.42-.89-1.34-1.93,7.74-3.57,16.97-6.25,26.04-7.89,10.42-1.79,20.98-2.98,31.55-3.27,10.57-.3,20.98.15,31.4,1.34,7.74.89,19.64,1.19,23.22,9.67.15.45.3.89.45,1.34,2.53,13.99-37.06,1.79-42.86.3Zm89.59-95.39c-1.19,6.4-5.95,11.61-12.05,14.14-84.68,34.82-128.28,61.02-148.67,75.3-2.38,1.64-5.21-1.49-3.13-3.72,46.73-51.49,150.76-93.61,150.76-93.61,11.91-2.23,13.99,2.53,13.1,7.89Z"/></g></svg>